<svg viewBox="0 0 1050 600" width="1050px" height="600px" xmlns="http://www.w3.org/2000/svg" xmlns:xlink="http://www.w3.org/1999/xlink" preserveAspectRatio="none"><rect width="100%" height="100%" fill="#F8E367" fill-opacity="1"/><defs></defs><style>.aa8w3p0ripVgZcolorc4131dc4-7740-4bbe-8156-8fdae78a2432 {fill:#FBFBFB;fill-opacity:1;}.aa8w3p0ripVgZstrokeColor-strc4131dc4-7740-4bbe-8156-8fdae78a2432 {stroke:#3437A2;stroke-opacity:1;}.ahk98uUM69WWcolors-0c4131dc4-7740-4bbe-8156-8fdae78a2432 {fill:#427C7D;fill-opacity:1;}.ahk98uUM69WWcolors-1c4131dc4-7740-4bbe-8156-8fdae78a2432 {fill:#FBFBFB;fill-opacity:1;}.ahk98uUM69WWcolors-2c4131dc4-7740-4bbe-8156-8fdae78a2432 {fill:#185759;fill-opacity:1;}.ahk98uUM69WWcolors-3c4131dc4-7740-4bbe-8156-8fdae78a2432 {fill:#AA8D6C;fill-opacity:1;}.ahk98uUM69WWcolors-4c4131dc4-7740-4bbe-8156-8fdae78a2432 {fill:#75624D;fill-opacity:1;}.ahk98uUM69WWcolors-5c4131dc4-7740-4bbe-8156-8fdae78a2432 {fill:#3437A2;fill-opacity:1;}.ahk98uUM69WWcolors-6c4131dc4-7740-4bbe-8156-8fdae78a2432 {fill:#1B1E79;fill-opacity:1;}.ahk98uUM69WWcolors-7c4131dc4-7740-4bbe-8156-8fdae78a2432 {fill:#1B4A79;fill-opacity:1;}.aPUYvxs-yUZxcolorc4131dc4-7740-4bbe-8156-8fdae78a2432 {fill:#2230DD;fill-opacity:1;}.aPUYvxs-yUZxstrokeColor-strc4131dc4-7740-4bbe-8156-8fdae78a2432 {stroke:#185759;stroke-opacity:1;}.aV8ayfMLH40filter-flooc4131dc4-7740-4bbe-8156-8fdae78a2432 {flood-color:#FBFBFB;flood-opacity:0.5;}.azLBaNXiwTLycolors-0c4131dc4-7740-4bbe-8156-8fdae78a2432 {fill:#FBFBFB;fill-opacity:1;}.azLBaNXiwTLycolors-1c4131dc4-7740-4bbe-8156-8fdae78a2432 {fill:#FBFBFB;fill-opacity:1;}.azLBaNXiwTLycolors-2c4131dc4-7740-4bbe-8156-8fdae78a2432 {fill:#185759;fill-opacity:1;}</style><defs>
      <filter
        x="454.2285"
        y="72.7287"
        width="141.543"
        height="148.0346"
        id="c4131dc4-7740-4bbe-8156-8fdae78a2432V8ayfMLH4"
        filterUnits="userSpaceOnUse"
        primitiveUnits="userSpaceOnUse"
        color-interpolation-filters="sRGB">
        <feGaussianBlur  result="a06wbkdhowj" stdDeviation="2" />
      </filter></defs><g filter="url(#c4131dc4-7740-4bbe-8156-8fdae78a2432V8ayfMLH4)"><g opacity="1" transform="rotate(0 460.2285 78.7287)">
<svg width="129.543" height="136.0346" x="460.2285" y="78.7287" version="1.1" preserveAspectRatio="none" viewBox="2.290736675262451 0 91.41880798339844 96">
  <g transform="matrix(1 0 0 1 0 0)" class="azLBaNXiwTLycolors-0c4131dc4-7740-4bbe-8156-8fdae78a2432"><path d="M82,92H14c-1.104,0-2,0.9-2,2s0.896,2,2,2h68c1.1,0,2-0.9,2-2S83.1,92,82,92z"></path><path d="M82,84H14c-1.104,0-2,0.9-2,2s0.896,2,2,2h68c1.1,0,2-0.9,2-2S83.1,84,82,84z"></path><path d="M90.84,28.076c-5.596-7.44-18.684-10.652-29.18-7.14c-6.54,2.18-11.2,6.616-13.66,12.616c-2.46-6-7.12-10.432-13.66-12.616  c-10.488-3.508-23.58-0.308-29.18,7.14c-2.392,3.18-5.452,9.904,0.944,19.184c13.524,19.633,6.444,29.036,6.096,29.477  c-0.692,0.852-0.576,2.1,0.268,2.804c0.368,0.312,0.828,0.46,1.276,0.46c0.044,0,0.084-0.023,0.124-0.023  C13.912,79.977,13.948,80,14,80h68c0.048,0,0.084-0.023,0.132-0.023c0.032,0,0.072,0.016,0.101,0.016  c0.443,0,0.899-0.148,1.264-0.448c0.852-0.692,0.977-1.948,0.296-2.808c-0.312-0.393-7.46-9.797,6.097-29.477  C96.292,37.976,93.236,31.256,90.84,28.076z"></path><path d="M36.208,17.388c4.82,1.724,8.824,4.508,11.792,8.268c2.968-3.756,6.968-6.544,11.792-8.268  c-2.536-2.772-6.004-4.548-9.792-5.044V8h4c1.1,0,2-0.896,2-2s-0.9-2-2-2h-4V2c0-1.104-0.896-2-2-2c-1.104,0-2,0.896-2,2v2h-4  c-1.104,0-2,0.896-2,2s0.896,2,2,2h4v4.344C42.212,12.84,38.744,14.616,36.208,17.388z"></path></g>
</svg>
</g></g><g opacity="1" transform="rotate(0 364.4246 335.9335)">
<svg width="351.8869" height="44.7996" x="364.4246" y="335.9335" version="1.1" preserveAspectRatio="none" viewBox="4.2 -28.32 224.96000000000004 28.64">
  <g transform="matrix(1 0 0 1 0 0)" class="aPUYvxs-yUZxcolorc4131dc4-7740-4bbe-8156-8fdae78a2432"><path id="id-c4131dc4-7740-4bbe-8156-8fdae78a2432PUYvxs-yUZx7" d="M24.04 0L13.32-12.44L8.20-7.24L8.20 0L4.20 0L4.20-28L8.20-28L8.20-12.36L23.40-28L27.96-28L16-15.40L28.72 0L24.04 0Z M36.96 0L36.96-28L40.96-28L40.96 0L36.96 0Z M73.44-28L77.44-28L77.44 0L74.16 0L57.36-20.88L57.36 0L53.36 0L53.36-28L56.64-28L73.44-7.12L73.44-28Z M109.24-5.04L109.24-14.16L113.08-14.16L113.08-3.24Q111.00-1.52 108.24-0.60Q105.48 0.32 102.48 0.32L102.48 0.32Q98.24 0.32 94.84-1.54Q91.44-3.40 89.50-6.66Q87.56-9.92 87.56-14L87.56-14Q87.56-18.08 89.50-21.36Q91.44-24.64 94.86-26.48Q98.28-28.32 102.56-28.32L102.56-28.32Q105.92-28.32 108.66-27.22Q111.40-26.12 113.32-24L113.32-24L110.84-21.52Q107.48-24.76 102.72-24.76L102.72-24.76Q99.52-24.76 96.98-23.38Q94.44-22 93.00-19.54Q91.56-17.08 91.56-14L91.56-14Q91.56-10.96 93.00-8.50Q94.44-6.04 96.98-4.64Q99.52-3.24 102.68-3.24L102.68-3.24Q106.44-3.24 109.24-5.04L109.24-5.04Z M124.72 0L124.72-28L136.52-28Q140.96-28 144.40-26.24Q147.84-24.48 149.74-21.30Q151.64-18.12 151.64-14L151.64-14Q151.64-9.88 149.74-6.70Q147.84-3.52 144.40-1.76Q140.96 0 136.52 0L136.52 0L124.72 0ZM128.72-3.48L136.28-3.48Q139.68-3.48 142.26-4.80Q144.84-6.12 146.24-8.50Q147.64-10.88 147.64-14L147.64-14Q147.64-17.12 146.24-19.50Q144.84-21.88 142.26-23.20Q139.68-24.52 136.28-24.52L136.28-24.52L128.72-24.52L128.72-3.48Z M174.40 0.32Q170.16 0.32 166.76-1.54Q163.36-3.40 161.42-6.68Q159.48-9.96 159.48-14L159.48-14Q159.48-18.04 161.42-21.32Q163.36-24.60 166.76-26.46Q170.16-28.32 174.40-28.32L174.40-28.32Q178.60-28.32 182-26.46Q185.40-24.60 187.32-21.34Q189.24-18.08 189.24-14L189.24-14Q189.24-9.92 187.32-6.66Q185.40-3.40 182-1.54Q178.60 0.32 174.40 0.32L174.40 0.32ZM174.40-3.24Q177.48-3.24 179.94-4.64Q182.40-6.04 183.82-8.50Q185.24-10.96 185.24-14L185.24-14Q185.24-17.04 183.82-19.50Q182.40-21.96 179.94-23.36Q177.48-24.76 174.40-24.76L174.40-24.76Q171.32-24.76 168.82-23.36Q166.32-21.96 164.90-19.50Q163.48-17.04 163.48-14L163.48-14Q163.48-10.96 164.90-8.50Q166.32-6.04 168.82-4.64Q171.32-3.24 174.40-3.24L174.40-3.24Z M229.16 0L225.32 0L225.28-20.40L215.16-3.40L213.32-3.40L203.20-20.28L203.20 0L199.36 0L199.36-28L202.64-28L214.32-8.32L225.84-28L229.12-28L229.16 0Z"/></g>
</svg>
</g><g opacity="1" transform="rotate(0 256.997 230.5344)">
<svg width="546.3532" height="79.0898" x="256.997" y="230.5344" version="1.1" preserveAspectRatio="none" viewBox="0.84 -28.56 201.16 29.12">
  <g transform="matrix(1 0 0 1 0 0)" class="aa8w3p0ripVgZcolorc4131dc4-7740-4bbe-8156-8fdae78a2432"><defs><path id="id-c4131dc4-7740-4bbe-8156-8fdae78a2432a8w3p0ripVgZ7" d="M12.64 0.56Q9.24 0.56 6.04-0.28Q2.84-1.12 0.84-2.52L0.84-2.52L3.44-8.36Q5.32-7.12 7.80-6.36Q10.28-5.60 12.68-5.60L12.68-5.60Q17.24-5.60 17.24-7.88L17.24-7.88Q17.24-9.08 15.94-9.66Q14.64-10.24 11.76-10.88L11.76-10.88Q8.60-11.56 6.48-12.34Q4.36-13.12 2.84-14.84Q1.32-16.56 1.32-19.48L1.32-19.48Q1.32-22.04 2.72-24.10Q4.12-26.16 6.90-27.36Q9.68-28.56 13.72-28.56L13.72-28.56Q16.48-28.56 19.16-27.94Q21.84-27.32 23.88-26.12L23.88-26.12L21.44-20.24Q17.44-22.40 13.68-22.40L13.68-22.40Q11.32-22.40 10.24-21.70Q9.16-21 9.16-19.88L9.16-19.88Q9.16-18.76 10.44-18.20Q11.72-17.64 14.56-17.04L14.56-17.04Q17.76-16.36 19.86-15.58Q21.96-14.80 23.50-13.10Q25.04-11.40 25.04-8.48L25.04-8.48Q25.04-5.96 23.64-3.92Q22.24-1.88 19.44-0.66Q16.64 0.56 12.64 0.56L12.64 0.56Z M47.56-28L55.32-28L55.32 0L48.80 0L36.44-14.92L36.44 0L28.68 0L28.68-28L35.20-28L47.56-13.08L47.56-28Z M68.76-6.12L83.40-6.12L83.40 0L60.92 0L60.92-28L82.88-28L82.88-21.88L68.76-21.88L68.76-17.16L81.20-17.16L81.20-11.24L68.76-11.24L68.76-6.12Z M108.76 0L106.56-5.44L94.72-5.44L92.52 0L84.44 0L96.80-28L104.60-28L117 0L108.76 0ZM97.04-11.28L104.24-11.28L100.64-20.24L97.04-11.28Z M138.04 0L130.04-10.16L127.08-7L127.08 0L119.24 0L119.24-28L127.08-28L127.08-16.36L137.92-28L146.64-28L135.20-15.60L147.24 0L138.04 0Z M157.16-6.12L171.80-6.12L171.80 0L149.32 0L149.32-28L171.28-28L171.28-21.88L157.16-21.88L157.16-17.16L169.60-17.16L169.60-11.24L157.16-11.24L157.16-6.12Z M193.52 0L188.44-7.44L184.12-7.44L184.12 0L176.20 0L176.20-28L189-28Q192.80-28 195.60-26.74Q198.40-25.48 199.92-23.14Q201.44-20.80 201.44-17.64L201.44-17.64Q201.44-14.60 200.02-12.34Q198.60-10.08 195.96-8.80L195.96-8.80L202 0L193.52 0ZM193.44-17.64Q193.44-19.60 192.20-20.68Q190.96-21.76 188.52-21.76L188.52-21.76L184.12-21.76L184.12-13.56L188.52-13.56Q190.96-13.56 192.20-14.62Q193.44-15.68 193.44-17.64L193.44-17.64Z"/></defs>
  <clipPath id="id-c4131dc4-7740-4bbe-8156-8fdae78a2432a8w3p0ripVgZ7-clip"><use xlink:href="#id-c4131dc4-7740-4bbe-8156-8fdae78a2432a8w3p0ripVgZ7" /></clipPath>
  <g clip-path="url(#id-c4131dc4-7740-4bbe-8156-8fdae78a2432a8w3p0ripVgZ7-clip)"><use xlink:href="#id-c4131dc4-7740-4bbe-8156-8fdae78a2432a8w3p0ripVgZ7" class="aa8w3p0ripVgZstrokeColor-strc4131dc4-7740-4bbe-8156-8fdae78a2432" style="stroke-width:1.2;"/></g>
  </g>
</svg>
</g><g opacity="1" transform="rotate(0 716.3115 271.7225)">
<svg width="190.3552" height="183.2216" x="716.3115" y="271.7225" version="1.1" preserveAspectRatio="none" viewBox="19.99955940246582 22.996767044067383 159.99929809570312 154.00323486328125">
  <g transform="matrix(1 0 0 1 0 0)" ><g><path d="M141.996 121.461a1.817 1.817 0 0 1-1.514-.811c-14.659-22.076-23.558-52.699-24.441-55.811l-.054-.163a178.171 178.171 0 0 1-2.769-9.171 1.914 1.914 0 0 0-.994-1.22 2.045 2.045 0 0 0-1.664-.07 34.15 34.15 0 0 1-5.119 1.566c-9.163 2.014-18.578-.533-24.563-6.649-5.153-5.266-7.088-12.538-5.309-19.95a2.442 2.442 0 0 0-.004-.137c-.051-.994-.41-1.752-1.01-2.132-.6-.378-1.434-.376-2.343.002-6.905 2.873-16.751 7.582-24.441 13.695-8.854 7.034-11.738 19.48-6.858 29.595 2.302 4.771 5.714 10.738 13.535 18.977l8.639-4.274.915 1.113c.054.065 5.395 6.559 10.568 12.536a1.819 1.819 0 0 1-.183 2.565 1.813 1.813 0 0 1-2.56-.183 741.78 741.78 0 0 1-9.71-11.496l-8.437 4.175-.921-.95c-8.836-9.107-12.599-15.666-15.115-20.881-5.612-11.634-2.302-25.944 7.871-34.027 8.016-6.373 18.185-11.242 25.304-14.204 2.006-.834 4.077-.731 5.675.281 1.604 1.015 2.587 2.846 2.697 5.023.026.506-.007.788-.07 1.08-1.523 6.35.03 12.229 4.352 16.645 5.115 5.227 13.233 7.39 21.191 5.642a30.368 30.368 0 0 0 4.572-1.399 5.673 5.673 0 0 1 4.62.207 5.572 5.572 0 0 1 2.867 3.516 169.64 169.64 0 0 0 2.138 7.211l.084-.03.528 1.887c.088.32 8.982 32.344 24.035 55.015a1.822 1.822 0 0 1-1.512 2.827z" data-color="1" class="ahk98uUM69WWcolors-0c4131dc4-7740-4bbe-8156-8fdae78a2432"></path><path d="M55.279 177c-6.186 0-11.758-.855-16.639-2.559-12.182-4.251-19.944-16.713-18.459-29.632 1.19-10.362 5.043-21.188 8.066-28.445a5.743 5.743 0 0 1 4.796-3.526 5.757 5.757 0 0 1 5.366 2.613c3.423 5.594 8.671 8.652 14.844 8.714 7.273.054 14.575-4.149 18.967-11.018a30.29 30.29 0 0 0 2.245-4.227 5.685 5.685 0 0 1 3.414-3.127 5.57 5.57 0 0 1 4.508.455c1.061.608 2.209 1.137 3.661 1.807 1.192.549 2.538 1.17 4.118 1.966a1.82 1.82 0 0 1 .804 2.442 1.815 1.815 0 0 1-2.438.807c-1.535-.774-2.844-1.377-4.002-1.912-1.475-.68-2.748-1.267-3.949-1.956a1.907 1.907 0 0 0-1.562-.157c-.546.18-.993.592-1.227 1.129a34.07 34.07 0 0 1-2.516 4.734c-5.058 7.914-13.551 12.739-22.059 12.693-7.362-.074-13.864-3.845-17.84-10.347-.457-.705-1.19-1.066-2.007-.995-.8.072-1.462.56-1.772 1.303-2.933 7.041-6.668 17.521-7.809 27.461-1.294 11.243 5.454 22.086 16.045 25.782 6.626 2.311 14.708 2.926 24.029 1.828l7.004-6.159.83.121c.329.047 33.225 4.727 59.886-.704l.845-.172 5.379 4.415c4.69-.708 29.75-5.082 36.939-18.593 1.695-3.185 2.084-6.82 1.067-9.973-1.367-4.239-4.275-6.47-8.643-6.633-14.422-.534-29.441-3.149-44.637-7.773a1.819 1.819 0 0 1-1.21-2.268 1.814 1.814 0 0 1 2.265-1.211c14.898 4.532 29.605 7.095 43.715 7.618 5.884.218 10.132 3.467 11.965 9.149 1.318 4.085.838 8.752-1.316 12.802-8.79 16.521-39.169 20.441-40.458 20.6l-.772.095-5.264-4.322c-24.71 4.819-54.138 1.372-59.445.683l-6.596 5.799-.555.069c-3.337.417-6.535.624-9.583.624z" data-color="1" class="ahk98uUM69WWcolors-0c4131dc4-7740-4bbe-8156-8fdae78a2432"></path><path d="m78.162 146.201-3.877-10.65 13.476-24.786c1.434-2.48 4.515-3.424 7.046-2.186 1.952.954 4.533 2.206 6.691 3.219a5.403 5.403 0 0 1 2.834 3.21 5.428 5.428 0 0 1-.393 4.254L90.248 145.76l-12.086.441zm10.961-2.218h.014-.014zm-10.863-8.134 2.41 6.622 7.328-.266 12.748-24.672a1.75 1.75 0 0 0 .132-1.397 1.729 1.729 0 0 0-.921-1.043 492.127 492.127 0 0 1-6.743-3.244 1.759 1.759 0 0 0-2.287.698L78.26 135.849z" data-color="1" class="ahk98uUM69WWcolors-0c4131dc4-7740-4bbe-8156-8fdae78a2432"></path><path d="m100.97 155.771-4.918-10.242 11.551-25.404c1.167-2.564 4.143-3.803 6.778-2.824 2.037.758 4.731 1.75 6.975 2.544a5.399 5.399 0 0 1 3.136 2.917c.596 1.362.6 2.927.014 4.295l-11.585 27.09-11.951 1.624zm10.687-3.287h.014-.014zm-11.596-6.997 3.037 6.325 7.295-.991 10.776-25.198a1.749 1.749 0 0 0-.004-1.402 1.729 1.729 0 0 0-1.018-.947 514.861 514.861 0 0 1-7.031-2.564 1.762 1.762 0 0 0-2.207.923l-10.848 23.854z" data-color="1" class="ahk98uUM69WWcolors-0c4131dc4-7740-4bbe-8156-8fdae78a2432"></path><path d="M71.789 170.463a1.815 1.815 0 0 1-1.641-1.04c-5.985-12.629-18.842-20.477-32.804-19.956a34.573 34.573 0 0 0-14.595 3.787 1.817 1.817 0 0 1-1.651-3.239c5.017-2.568 10.439-3.975 16.114-4.182a38.489 38.489 0 0 1 36.215 22.032 1.82 1.82 0 0 1-1.638 2.598z" data-color="1" class="ahk98uUM69WWcolors-0c4131dc4-7740-4bbe-8156-8fdae78a2432"></path><path d="M62.6 88.997c-.498 0-.994-.204-1.352-.605-.444-.497-10.92-12.317-15.001-26.257a1.819 1.819 0 0 1 1.231-2.257 1.82 1.82 0 0 1 2.253 1.234c3.853 13.157 14.118 24.739 14.22 24.854a1.82 1.82 0 0 1-.14 2.568c-.346.311-.78.463-1.211.463z" data-color="1" class="ahk98uUM69WWcolors-0c4131dc4-7740-4bbe-8156-8fdae78a2432"></path></g></g>
</svg>
</g></svg>